<svg width="20" height="20" viewBox="0 0 20 20" fill="none" xmlns="http://www.w3.org/2000/svg">
<g id="Discovery">
<path id="Fill 1" opacity="0.4" d="M20 9.99988C20 15.5229 15.523 19.9999 10 19.9999C4.477 19.9999 0 15.5229 0 9.99988C0 4.47788 4.477 -0.00012207 10 -0.00012207C15.523 -0.00012207 20 4.47788 20 9.99988Z" fill="white"/>
<path id="Fill 4" d="M13.86 6.70493L12.24 11.8249C12.18 12.0349 12.01 12.2049 11.8 12.2659L6.69996 13.8649C6.35996 13.9759 6.02996 13.6449 6.13996 13.3049L7.73996 8.17493C7.79996 7.96493 7.96996 7.80493 8.17996 7.73493L13.3 6.13493C13.65 6.02493 13.97 6.35493 13.86 6.70493Z" fill="white"/>
</g>
</svg>
